<mxfile host="app.diagrams.net" modified="2021-10-31T15:38:18.635Z" agent="5.0 (Windows NT 10.0; Win64; x64) AppleWebKit/537.36 (KHTML, like Gecko) Chrome/95.0.4638.54 Safari/537.36 Edg/95.0.1020.40" etag="VsnprEdg131FD48Wl9sk" version="15.6.3" type="github" pages="2">
  <diagram id="SoRXDnjwO3ZmQfN1C3io" name="Page-1">
    <mxGraphModel dx="3242" dy="1142" grid="1" gridSize="10" guides="1" tooltips="1" connect="1" arrows="1" fold="1" page="1" pageScale="1" pageWidth="583" pageHeight="827" math="0" shadow="0">
      <root>
        <mxCell id="0" />
        <mxCell id="1" parent="0" />
        <mxCell id="cjGhIyGhjkN-l4axuEIg-139" value="aircraft" style="swimlane;fontStyle=1;childLayout=stackLayout;horizontal=1;startSize=60;horizontalStack=0;resizeParent=1;resizeParentMax=0;resizeLast=0;collapsible=1;marginBottom=0;fontSize=24;strokeColor=#b85450;align=left;verticalAlign=top;fillColor=#f8cecc;" parent="1" vertex="1">
          <mxGeometry x="-750" y="690" width="290" height="160" as="geometry">
            <mxRectangle x="550" y="930" width="110" height="60" as="alternateBounds" />
          </mxGeometry>
        </mxCell>
        <mxCell id="cjGhIyGhjkN-l4axuEIg-140" value="id" style="text;strokeColor=none;fillColor=none;align=left;verticalAlign=top;spacingLeft=4;spacingRight=4;overflow=hidden;rotatable=0;points=[[0,0.5],[1,0.5]];portConstraint=eastwest;fontSize=20;" parent="cjGhIyGhjkN-l4axuEIg-139" vertex="1">
          <mxGeometry y="60" width="290" height="50" as="geometry" />
        </mxCell>
        <mxCell id="cjGhIyGhjkN-l4axuEIg-141" value="airline_id" style="text;strokeColor=none;fillColor=none;align=left;verticalAlign=top;spacingLeft=4;spacingRight=4;overflow=hidden;rotatable=0;points=[[0,0.5],[1,0.5]];portConstraint=eastwest;fontSize=20;" parent="cjGhIyGhjkN-l4axuEIg-139" vertex="1">
          <mxGeometry y="110" width="290" height="50" as="geometry" />
        </mxCell>
        <mxCell id="cjGhIyGhjkN-l4axuEIg-152" value="airline" style="swimlane;fontStyle=1;childLayout=stackLayout;horizontal=1;startSize=60;horizontalStack=0;resizeParent=1;resizeParentMax=0;resizeLast=0;collapsible=1;marginBottom=0;fontSize=24;strokeColor=#000000;align=left;verticalAlign=top;" parent="1" vertex="1">
          <mxGeometry x="-750" y="875" width="290" height="260" as="geometry">
            <mxRectangle x="550" y="930" width="110" height="60" as="alternateBounds" />
          </mxGeometry>
        </mxCell>
        <mxCell id="cjGhIyGhjkN-l4axuEIg-153" value="id" style="text;strokeColor=none;fillColor=none;align=left;verticalAlign=top;spacingLeft=4;spacingRight=4;overflow=hidden;rotatable=0;points=[[0,0.5],[1,0.5]];portConstraint=eastwest;fontSize=20;" parent="cjGhIyGhjkN-l4axuEIg-152" vertex="1">
          <mxGeometry y="60" width="290" height="50" as="geometry" />
        </mxCell>
        <mxCell id="cjGhIyGhjkN-l4axuEIg-154" value="name" style="text;strokeColor=none;fillColor=none;align=left;verticalAlign=top;spacingLeft=4;spacingRight=4;overflow=hidden;rotatable=0;points=[[0,0.5],[1,0.5]];portConstraint=eastwest;fontSize=20;" parent="cjGhIyGhjkN-l4axuEIg-152" vertex="1">
          <mxGeometry y="110" width="290" height="50" as="geometry" />
        </mxCell>
        <mxCell id="cjGhIyGhjkN-l4axuEIg-155" value="short_name" style="text;strokeColor=none;fillColor=none;align=left;verticalAlign=top;spacingLeft=4;spacingRight=4;overflow=hidden;rotatable=0;points=[[0,0.5],[1,0.5]];portConstraint=eastwest;fontSize=20;" parent="cjGhIyGhjkN-l4axuEIg-152" vertex="1">
          <mxGeometry y="160" width="290" height="50" as="geometry" />
        </mxCell>
        <mxCell id="cjGhIyGhjkN-l4axuEIg-156" value="logo" style="text;strokeColor=none;fillColor=none;align=left;verticalAlign=top;spacingLeft=4;spacingRight=4;overflow=hidden;rotatable=0;points=[[0,0.5],[1,0.5]];portConstraint=eastwest;fontSize=20;" parent="cjGhIyGhjkN-l4axuEIg-152" vertex="1">
          <mxGeometry y="210" width="290" height="50" as="geometry" />
        </mxCell>
        <mxCell id="cjGhIyGhjkN-l4axuEIg-157" value="booked_seat" style="swimlane;fontStyle=1;childLayout=stackLayout;horizontal=1;startSize=60;horizontalStack=0;resizeParent=1;resizeParentMax=0;resizeLast=0;collapsible=1;marginBottom=0;fontSize=24;strokeColor=#000000;align=left;verticalAlign=top;" parent="1" vertex="1">
          <mxGeometry x="-750" y="1190" width="290" height="160" as="geometry">
            <mxRectangle x="550" y="930" width="110" height="60" as="alternateBounds" />
          </mxGeometry>
        </mxCell>
        <mxCell id="cjGhIyGhjkN-l4axuEIg-158" value="flight_id" style="text;strokeColor=none;fillColor=none;align=left;verticalAlign=top;spacingLeft=4;spacingRight=4;overflow=hidden;rotatable=0;points=[[0,0.5],[1,0.5]];portConstraint=eastwest;fontSize=20;" parent="cjGhIyGhjkN-l4axuEIg-157" vertex="1">
          <mxGeometry y="60" width="290" height="50" as="geometry" />
        </mxCell>
        <mxCell id="cjGhIyGhjkN-l4axuEIg-159" value="seat_class_id" style="text;strokeColor=none;fillColor=none;align=left;verticalAlign=top;spacingLeft=4;spacingRight=4;overflow=hidden;rotatable=0;points=[[0,0.5],[1,0.5]];portConstraint=eastwest;fontSize=20;" parent="cjGhIyGhjkN-l4axuEIg-157" vertex="1">
          <mxGeometry y="110" width="290" height="50" as="geometry" />
        </mxCell>
        <mxCell id="cjGhIyGhjkN-l4axuEIg-160" value="booking" style="swimlane;fontStyle=1;childLayout=stackLayout;horizontal=1;startSize=60;horizontalStack=0;resizeParent=1;resizeParentMax=0;resizeLast=0;collapsible=1;marginBottom=0;fontSize=24;strokeColor=#9673a6;align=left;verticalAlign=top;fillColor=#e1d5e7;" parent="1" vertex="1">
          <mxGeometry x="180" y="90" width="290" height="410" as="geometry">
            <mxRectangle x="550" y="930" width="110" height="60" as="alternateBounds" />
          </mxGeometry>
        </mxCell>
        <mxCell id="cjGhIyGhjkN-l4axuEIg-161" value="id" style="text;strokeColor=none;fillColor=none;align=left;verticalAlign=top;spacingLeft=4;spacingRight=4;overflow=hidden;rotatable=0;points=[[0,0.5],[1,0.5]];portConstraint=eastwest;fontSize=20;" parent="cjGhIyGhjkN-l4axuEIg-160" vertex="1">
          <mxGeometry y="60" width="290" height="50" as="geometry" />
        </mxCell>
        <mxCell id="cjGhIyGhjkN-l4axuEIg-162" value="booked_time" style="text;strokeColor=none;fillColor=none;align=left;verticalAlign=top;spacingLeft=4;spacingRight=4;overflow=hidden;rotatable=0;points=[[0,0.5],[1,0.5]];portConstraint=eastwest;fontSize=20;" parent="cjGhIyGhjkN-l4axuEIg-160" vertex="1">
          <mxGeometry y="110" width="290" height="50" as="geometry" />
        </mxCell>
        <mxCell id="cjGhIyGhjkN-l4axuEIg-163" value="flight_id" style="text;strokeColor=none;fillColor=none;align=left;verticalAlign=top;spacingLeft=4;spacingRight=4;overflow=hidden;rotatable=0;points=[[0,0.5],[1,0.5]];portConstraint=eastwest;fontSize=20;" parent="cjGhIyGhjkN-l4axuEIg-160" vertex="1">
          <mxGeometry y="160" width="290" height="50" as="geometry" />
        </mxCell>
        <mxCell id="dwVEOOAWxV4uYfPuYmq5-7" value="passenger_id" style="text;strokeColor=none;fillColor=none;align=left;verticalAlign=top;spacingLeft=4;spacingRight=4;overflow=hidden;rotatable=0;points=[[0,0.5],[1,0.5]];portConstraint=eastwest;fontSize=20;" parent="cjGhIyGhjkN-l4axuEIg-160" vertex="1">
          <mxGeometry y="210" width="290" height="50" as="geometry" />
        </mxCell>
        <mxCell id="dwVEOOAWxV4uYfPuYmq5-4" value="seat_class_id" style="text;strokeColor=none;fillColor=none;align=left;verticalAlign=top;spacingLeft=4;spacingRight=4;overflow=hidden;rotatable=0;points=[[0,0.5],[1,0.5]];portConstraint=eastwest;fontSize=20;" parent="cjGhIyGhjkN-l4axuEIg-160" vertex="1">
          <mxGeometry y="260" width="290" height="50" as="geometry" />
        </mxCell>
        <mxCell id="dwVEOOAWxV4uYfPuYmq5-5" value="total_price" style="text;strokeColor=none;fillColor=none;align=left;verticalAlign=top;spacingLeft=4;spacingRight=4;overflow=hidden;rotatable=0;points=[[0,0.5],[1,0.5]];portConstraint=eastwest;fontSize=20;" parent="cjGhIyGhjkN-l4axuEIg-160" vertex="1">
          <mxGeometry y="310" width="290" height="50" as="geometry" />
        </mxCell>
        <mxCell id="dwVEOOAWxV4uYfPuYmq5-6" value="status" style="text;strokeColor=none;fillColor=none;align=left;verticalAlign=top;spacingLeft=4;spacingRight=4;overflow=hidden;rotatable=0;points=[[0,0.5],[1,0.5]];portConstraint=eastwest;fontSize=20;" parent="cjGhIyGhjkN-l4axuEIg-160" vertex="1">
          <mxGeometry y="360" width="290" height="50" as="geometry" />
        </mxCell>
        <mxCell id="cjGhIyGhjkN-l4axuEIg-168" value="capacity" style="swimlane;fontStyle=1;childLayout=stackLayout;horizontal=1;startSize=60;horizontalStack=0;resizeParent=1;resizeParentMax=0;resizeLast=0;collapsible=1;marginBottom=0;fontSize=24;strokeColor=#666666;align=left;verticalAlign=top;fillColor=#f5f5f5;fontColor=#333333;" parent="1" vertex="1">
          <mxGeometry x="-300" y="800" width="290" height="210" as="geometry">
            <mxRectangle x="550" y="930" width="110" height="60" as="alternateBounds" />
          </mxGeometry>
        </mxCell>
        <mxCell id="cjGhIyGhjkN-l4axuEIg-169" value="aircraft_id" style="text;strokeColor=none;fillColor=none;align=left;verticalAlign=top;spacingLeft=4;spacingRight=4;overflow=hidden;rotatable=0;points=[[0,0.5],[1,0.5]];portConstraint=eastwest;fontSize=20;" parent="cjGhIyGhjkN-l4axuEIg-168" vertex="1">
          <mxGeometry y="60" width="290" height="50" as="geometry" />
        </mxCell>
        <mxCell id="cjGhIyGhjkN-l4axuEIg-170" value="seat_class_id" style="text;strokeColor=none;fillColor=none;align=left;verticalAlign=top;spacingLeft=4;spacingRight=4;overflow=hidden;rotatable=0;points=[[0,0.5],[1,0.5]];portConstraint=eastwest;fontSize=20;" parent="cjGhIyGhjkN-l4axuEIg-168" vertex="1">
          <mxGeometry y="110" width="290" height="50" as="geometry" />
        </mxCell>
        <mxCell id="cjGhIyGhjkN-l4axuEIg-171" value="capacity" style="text;strokeColor=none;fillColor=none;align=left;verticalAlign=top;spacingLeft=4;spacingRight=4;overflow=hidden;rotatable=0;points=[[0,0.5],[1,0.5]];portConstraint=eastwest;fontSize=20;" parent="cjGhIyGhjkN-l4axuEIg-168" vertex="1">
          <mxGeometry y="160" width="290" height="50" as="geometry" />
        </mxCell>
        <mxCell id="cjGhIyGhjkN-l4axuEIg-172" value="city" style="swimlane;fontStyle=1;childLayout=stackLayout;horizontal=1;startSize=60;horizontalStack=0;resizeParent=1;resizeParentMax=0;resizeLast=0;collapsible=1;marginBottom=0;fontSize=24;strokeColor=#6c8ebf;align=left;verticalAlign=top;fillColor=#dae8fc;" parent="1" vertex="1">
          <mxGeometry x="-800" y="20" width="290" height="210" as="geometry">
            <mxRectangle x="550" y="930" width="110" height="60" as="alternateBounds" />
          </mxGeometry>
        </mxCell>
        <mxCell id="cjGhIyGhjkN-l4axuEIg-173" value="id" style="text;strokeColor=none;fillColor=none;align=left;verticalAlign=top;spacingLeft=4;spacingRight=4;overflow=hidden;rotatable=0;points=[[0,0.5],[1,0.5]];portConstraint=eastwest;fontSize=20;" parent="cjGhIyGhjkN-l4axuEIg-172" vertex="1">
          <mxGeometry y="60" width="290" height="50" as="geometry" />
        </mxCell>
        <mxCell id="cjGhIyGhjkN-l4axuEIg-174" value="name" style="text;strokeColor=none;fillColor=none;align=left;verticalAlign=top;spacingLeft=4;spacingRight=4;overflow=hidden;rotatable=0;points=[[0,0.5],[1,0.5]];portConstraint=eastwest;fontSize=20;" parent="cjGhIyGhjkN-l4axuEIg-172" vertex="1">
          <mxGeometry y="110" width="290" height="50" as="geometry" />
        </mxCell>
        <mxCell id="cjGhIyGhjkN-l4axuEIg-175" value="sector_id" style="text;strokeColor=none;fillColor=none;align=left;verticalAlign=top;spacingLeft=4;spacingRight=4;overflow=hidden;rotatable=0;points=[[0,0.5],[1,0.5]];portConstraint=eastwest;fontSize=20;" parent="cjGhIyGhjkN-l4axuEIg-172" vertex="1">
          <mxGeometry y="160" width="290" height="50" as="geometry" />
        </mxCell>
        <mxCell id="cjGhIyGhjkN-l4axuEIg-176" value="flight" style="swimlane;fontStyle=1;childLayout=stackLayout;horizontal=1;startSize=60;horizontalStack=0;resizeParent=1;resizeParentMax=0;resizeLast=0;collapsible=1;marginBottom=0;fontSize=24;strokeColor=#d6b656;align=left;verticalAlign=top;fillColor=#fff2cc;" parent="1" vertex="1">
          <mxGeometry x="-260" y="50" width="290" height="410" as="geometry">
            <mxRectangle x="550" y="930" width="110" height="60" as="alternateBounds" />
          </mxGeometry>
        </mxCell>
        <mxCell id="cjGhIyGhjkN-l4axuEIg-177" value="id" style="text;strokeColor=none;fillColor=none;align=left;verticalAlign=top;spacingLeft=4;spacingRight=4;overflow=hidden;rotatable=0;points=[[0,0.5],[1,0.5]];portConstraint=eastwest;fontSize=20;" parent="cjGhIyGhjkN-l4axuEIg-176" vertex="1">
          <mxGeometry y="60" width="290" height="50" as="geometry" />
        </mxCell>
        <mxCell id="cjGhIyGhjkN-l4axuEIg-178" value="aircraft_id" style="text;strokeColor=none;fillColor=none;align=left;verticalAlign=top;spacingLeft=4;spacingRight=4;overflow=hidden;rotatable=0;points=[[0,0.5],[1,0.5]];portConstraint=eastwest;fontSize=20;" parent="cjGhIyGhjkN-l4axuEIg-176" vertex="1">
          <mxGeometry y="110" width="290" height="50" as="geometry" />
        </mxCell>
        <mxCell id="cjGhIyGhjkN-l4axuEIg-179" value="start_airport_id" style="text;strokeColor=none;fillColor=none;align=left;verticalAlign=top;spacingLeft=4;spacingRight=4;overflow=hidden;rotatable=0;points=[[0,0.5],[1,0.5]];portConstraint=eastwest;fontSize=20;" parent="cjGhIyGhjkN-l4axuEIg-176" vertex="1">
          <mxGeometry y="160" width="290" height="50" as="geometry" />
        </mxCell>
        <mxCell id="cjGhIyGhjkN-l4axuEIg-180" value="start_time" style="text;strokeColor=none;fillColor=none;align=left;verticalAlign=top;spacingLeft=4;spacingRight=4;overflow=hidden;rotatable=0;points=[[0,0.5],[1,0.5]];portConstraint=eastwest;fontSize=20;" parent="cjGhIyGhjkN-l4axuEIg-176" vertex="1">
          <mxGeometry y="210" width="290" height="50" as="geometry" />
        </mxCell>
        <mxCell id="cjGhIyGhjkN-l4axuEIg-181" value="arrive_airport_id" style="text;strokeColor=none;fillColor=none;align=left;verticalAlign=top;spacingLeft=4;spacingRight=4;overflow=hidden;rotatable=0;points=[[0,0.5],[1,0.5]];portConstraint=eastwest;fontSize=20;" parent="cjGhIyGhjkN-l4axuEIg-176" vertex="1">
          <mxGeometry y="260" width="290" height="50" as="geometry" />
        </mxCell>
        <mxCell id="cjGhIyGhjkN-l4axuEIg-182" value="arrive_time" style="text;strokeColor=none;fillColor=none;align=left;verticalAlign=top;spacingLeft=4;spacingRight=4;overflow=hidden;rotatable=0;points=[[0,0.5],[1,0.5]];portConstraint=eastwest;fontSize=20;" parent="cjGhIyGhjkN-l4axuEIg-176" vertex="1">
          <mxGeometry y="310" width="290" height="50" as="geometry" />
        </mxCell>
        <mxCell id="cjGhIyGhjkN-l4axuEIg-183" value="price" style="text;strokeColor=none;fillColor=none;align=left;verticalAlign=top;spacingLeft=4;spacingRight=4;overflow=hidden;rotatable=0;points=[[0,0.5],[1,0.5]];portConstraint=eastwest;fontSize=20;" parent="cjGhIyGhjkN-l4axuEIg-176" vertex="1">
          <mxGeometry y="360" width="290" height="50" as="geometry" />
        </mxCell>
        <mxCell id="cjGhIyGhjkN-l4axuEIg-192" value="passenger" style="swimlane;fontStyle=1;childLayout=stackLayout;horizontal=1;startSize=60;horizontalStack=0;resizeParent=1;resizeParentMax=0;resizeLast=0;collapsible=1;marginBottom=0;fontSize=24;strokeColor=#000000;align=left;verticalAlign=top;" parent="1" vertex="1">
          <mxGeometry x="520" y="655" width="290" height="460" as="geometry">
            <mxRectangle x="550" y="930" width="110" height="60" as="alternateBounds" />
          </mxGeometry>
        </mxCell>
        <mxCell id="cjGhIyGhjkN-l4axuEIg-193" value="id" style="text;strokeColor=none;fillColor=none;align=left;verticalAlign=top;spacingLeft=4;spacingRight=4;overflow=hidden;rotatable=0;points=[[0,0.5],[1,0.5]];portConstraint=eastwest;fontSize=20;" parent="cjGhIyGhjkN-l4axuEIg-192" vertex="1">
          <mxGeometry y="60" width="290" height="50" as="geometry" />
        </mxCell>
        <mxCell id="dwVEOOAWxV4uYfPuYmq5-1" value="user_id" style="text;strokeColor=none;fillColor=none;align=left;verticalAlign=top;spacingLeft=4;spacingRight=4;overflow=hidden;rotatable=0;points=[[0,0.5],[1,0.5]];portConstraint=eastwest;fontSize=20;" parent="cjGhIyGhjkN-l4axuEIg-192" vertex="1">
          <mxGeometry y="110" width="290" height="50" as="geometry" />
        </mxCell>
        <mxCell id="oDikXgAVGrcmsy6VHiM1-22" value="first_name" style="text;strokeColor=none;fillColor=none;align=left;verticalAlign=top;spacingLeft=4;spacingRight=4;overflow=hidden;rotatable=0;points=[[0,0.5],[1,0.5]];portConstraint=eastwest;fontSize=20;" parent="cjGhIyGhjkN-l4axuEIg-192" vertex="1">
          <mxGeometry y="160" width="290" height="50" as="geometry" />
        </mxCell>
        <mxCell id="cjGhIyGhjkN-l4axuEIg-194" value="last_name" style="text;strokeColor=none;fillColor=none;align=left;verticalAlign=top;spacingLeft=4;spacingRight=4;overflow=hidden;rotatable=0;points=[[0,0.5],[1,0.5]];portConstraint=eastwest;fontSize=20;" parent="cjGhIyGhjkN-l4axuEIg-192" vertex="1">
          <mxGeometry y="210" width="290" height="50" as="geometry" />
        </mxCell>
        <mxCell id="cjGhIyGhjkN-l4axuEIg-195" value="gender" style="text;strokeColor=none;fillColor=none;align=left;verticalAlign=top;spacingLeft=4;spacingRight=4;overflow=hidden;rotatable=0;points=[[0,0.5],[1,0.5]];portConstraint=eastwest;fontSize=20;" parent="cjGhIyGhjkN-l4axuEIg-192" vertex="1">
          <mxGeometry y="260" width="290" height="50" as="geometry" />
        </mxCell>
        <mxCell id="dwVEOOAWxV4uYfPuYmq5-2" value="email" style="text;strokeColor=none;fillColor=none;align=left;verticalAlign=top;spacingLeft=4;spacingRight=4;overflow=hidden;rotatable=0;points=[[0,0.5],[1,0.5]];portConstraint=eastwest;fontSize=20;" parent="cjGhIyGhjkN-l4axuEIg-192" vertex="1">
          <mxGeometry y="310" width="290" height="50" as="geometry" />
        </mxCell>
        <mxCell id="xMIE6E7BOP23Hvamp6td-2" value="id_number" style="text;strokeColor=none;fillColor=none;align=left;verticalAlign=top;spacingLeft=4;spacingRight=4;overflow=hidden;rotatable=0;points=[[0,0.5],[1,0.5]];portConstraint=eastwest;fontSize=20;" parent="cjGhIyGhjkN-l4axuEIg-192" vertex="1">
          <mxGeometry y="360" width="290" height="50" as="geometry" />
        </mxCell>
        <mxCell id="dwVEOOAWxV4uYfPuYmq5-3" value="phone" style="text;strokeColor=none;fillColor=none;align=left;verticalAlign=top;spacingLeft=4;spacingRight=4;overflow=hidden;rotatable=0;points=[[0,0.5],[1,0.5]];portConstraint=eastwest;fontSize=20;" parent="cjGhIyGhjkN-l4axuEIg-192" vertex="1">
          <mxGeometry y="410" width="290" height="50" as="geometry" />
        </mxCell>
        <mxCell id="cjGhIyGhjkN-l4axuEIg-207" value="seat_class" style="swimlane;fontStyle=1;childLayout=stackLayout;horizontal=1;startSize=60;horizontalStack=0;resizeParent=1;resizeParentMax=0;resizeLast=0;collapsible=1;marginBottom=0;fontSize=24;strokeColor=#82b366;align=left;verticalAlign=top;fillColor=#d5e8d4;" parent="1" vertex="1">
          <mxGeometry x="-290" y="1240" width="290" height="160" as="geometry">
            <mxRectangle x="550" y="930" width="110" height="60" as="alternateBounds" />
          </mxGeometry>
        </mxCell>
        <mxCell id="cjGhIyGhjkN-l4axuEIg-208" value="id" style="text;strokeColor=none;fillColor=none;align=left;verticalAlign=top;spacingLeft=4;spacingRight=4;overflow=hidden;rotatable=0;points=[[0,0.5],[1,0.5]];portConstraint=eastwest;fontSize=20;" parent="cjGhIyGhjkN-l4axuEIg-207" vertex="1">
          <mxGeometry y="60" width="290" height="50" as="geometry" />
        </mxCell>
        <mxCell id="cjGhIyGhjkN-l4axuEIg-209" value="name" style="text;strokeColor=none;fillColor=none;align=left;verticalAlign=top;spacingLeft=4;spacingRight=4;overflow=hidden;rotatable=0;points=[[0,0.5],[1,0.5]];portConstraint=eastwest;fontSize=20;" parent="cjGhIyGhjkN-l4axuEIg-207" vertex="1">
          <mxGeometry y="110" width="290" height="50" as="geometry" />
        </mxCell>
        <mxCell id="cjGhIyGhjkN-l4axuEIg-210" value="sector" style="swimlane;fontStyle=1;childLayout=stackLayout;horizontal=1;startSize=60;horizontalStack=0;resizeParent=1;resizeParentMax=0;resizeLast=0;collapsible=1;marginBottom=0;fontSize=24;strokeColor=#000000;align=left;verticalAlign=top;" parent="1" vertex="1">
          <mxGeometry x="-770" y="250" width="290" height="160" as="geometry">
            <mxRectangle x="550" y="930" width="110" height="60" as="alternateBounds" />
          </mxGeometry>
        </mxCell>
        <mxCell id="cjGhIyGhjkN-l4axuEIg-211" value="id" style="text;strokeColor=none;fillColor=none;align=left;verticalAlign=top;spacingLeft=4;spacingRight=4;overflow=hidden;rotatable=0;points=[[0,0.5],[1,0.5]];portConstraint=eastwest;fontSize=20;" parent="cjGhIyGhjkN-l4axuEIg-210" vertex="1">
          <mxGeometry y="60" width="290" height="50" as="geometry" />
        </mxCell>
        <mxCell id="cjGhIyGhjkN-l4axuEIg-212" value="name" style="text;strokeColor=none;fillColor=none;align=left;verticalAlign=top;spacingLeft=4;spacingRight=4;overflow=hidden;rotatable=0;points=[[0,0.5],[1,0.5]];portConstraint=eastwest;fontSize=20;" parent="cjGhIyGhjkN-l4axuEIg-210" vertex="1">
          <mxGeometry y="110" width="290" height="50" as="geometry" />
        </mxCell>
        <mxCell id="cjGhIyGhjkN-l4axuEIg-213" value="user" style="swimlane;fontStyle=1;childLayout=stackLayout;horizontal=1;startSize=60;horizontalStack=0;resizeParent=1;resizeParentMax=0;resizeLast=0;collapsible=1;marginBottom=0;fontSize=24;strokeColor=#000000;align=left;verticalAlign=top;" parent="1" vertex="1">
          <mxGeometry x="120" y="710" width="290" height="560" as="geometry">
            <mxRectangle x="50" y="715" width="110" height="60" as="alternateBounds" />
          </mxGeometry>
        </mxCell>
        <mxCell id="cjGhIyGhjkN-l4axuEIg-214" value="id" style="text;strokeColor=none;fillColor=none;align=left;verticalAlign=top;spacingLeft=4;spacingRight=4;overflow=hidden;rotatable=0;points=[[0,0.5],[1,0.5]];portConstraint=eastwest;fontSize=20;" parent="cjGhIyGhjkN-l4axuEIg-213" vertex="1">
          <mxGeometry y="60" width="290" height="50" as="geometry" />
        </mxCell>
        <mxCell id="cjGhIyGhjkN-l4axuEIg-215" value="name" style="text;strokeColor=none;fillColor=none;align=left;verticalAlign=top;spacingLeft=4;spacingRight=4;overflow=hidden;rotatable=0;points=[[0,0.5],[1,0.5]];portConstraint=eastwest;fontSize=20;" parent="cjGhIyGhjkN-l4axuEIg-213" vertex="1">
          <mxGeometry y="110" width="290" height="50" as="geometry" />
        </mxCell>
        <mxCell id="cjGhIyGhjkN-l4axuEIg-216" value="email" style="text;strokeColor=none;fillColor=none;align=left;verticalAlign=top;spacingLeft=4;spacingRight=4;overflow=hidden;rotatable=0;points=[[0,0.5],[1,0.5]];portConstraint=eastwest;fontSize=20;" parent="cjGhIyGhjkN-l4axuEIg-213" vertex="1">
          <mxGeometry y="160" width="290" height="50" as="geometry" />
        </mxCell>
        <mxCell id="xMIE6E7BOP23Hvamp6td-1" value="id_number" style="text;strokeColor=none;fillColor=none;align=left;verticalAlign=top;spacingLeft=4;spacingRight=4;overflow=hidden;rotatable=0;points=[[0,0.5],[1,0.5]];portConstraint=eastwest;fontSize=20;" parent="cjGhIyGhjkN-l4axuEIg-213" vertex="1">
          <mxGeometry y="210" width="290" height="50" as="geometry" />
        </mxCell>
        <mxCell id="cjGhIyGhjkN-l4axuEIg-217" value="gender" style="text;strokeColor=none;fillColor=none;align=left;verticalAlign=top;spacingLeft=4;spacingRight=4;overflow=hidden;rotatable=0;points=[[0,0.5],[1,0.5]];portConstraint=eastwest;fontSize=20;" parent="cjGhIyGhjkN-l4axuEIg-213" vertex="1">
          <mxGeometry y="260" width="290" height="50" as="geometry" />
        </mxCell>
        <mxCell id="cjGhIyGhjkN-l4axuEIg-218" value="birthday" style="text;strokeColor=none;fillColor=none;align=left;verticalAlign=top;spacingLeft=4;spacingRight=4;overflow=hidden;rotatable=0;points=[[0,0.5],[1,0.5]];portConstraint=eastwest;fontSize=20;" parent="cjGhIyGhjkN-l4axuEIg-213" vertex="1">
          <mxGeometry y="310" width="290" height="50" as="geometry" />
        </mxCell>
        <mxCell id="cjGhIyGhjkN-l4axuEIg-219" value="address" style="text;strokeColor=none;fillColor=none;align=left;verticalAlign=top;spacingLeft=4;spacingRight=4;overflow=hidden;rotatable=0;points=[[0,0.5],[1,0.5]];portConstraint=eastwest;fontSize=20;" parent="cjGhIyGhjkN-l4axuEIg-213" vertex="1">
          <mxGeometry y="360" width="290" height="50" as="geometry" />
        </mxCell>
        <mxCell id="cjGhIyGhjkN-l4axuEIg-220" value="phone" style="text;strokeColor=none;fillColor=none;align=left;verticalAlign=top;spacingLeft=4;spacingRight=4;overflow=hidden;rotatable=0;points=[[0,0.5],[1,0.5]];portConstraint=eastwest;fontSize=20;" parent="cjGhIyGhjkN-l4axuEIg-213" vertex="1">
          <mxGeometry y="410" width="290" height="50" as="geometry" />
        </mxCell>
        <mxCell id="cjGhIyGhjkN-l4axuEIg-224" value="password" style="text;strokeColor=none;fillColor=none;align=left;verticalAlign=top;spacingLeft=4;spacingRight=4;overflow=hidden;rotatable=0;points=[[0,0.5],[1,0.5]];portConstraint=eastwest;fontSize=20;" parent="cjGhIyGhjkN-l4axuEIg-213" vertex="1">
          <mxGeometry y="460" width="290" height="50" as="geometry" />
        </mxCell>
        <mxCell id="cjGhIyGhjkN-l4axuEIg-225" value="image" style="text;strokeColor=none;fillColor=none;align=left;verticalAlign=top;spacingLeft=4;spacingRight=4;overflow=hidden;rotatable=0;points=[[0,0.5],[1,0.5]];portConstraint=eastwest;fontSize=20;" parent="cjGhIyGhjkN-l4axuEIg-213" vertex="1">
          <mxGeometry y="510" width="290" height="50" as="geometry" />
        </mxCell>
        <mxCell id="kM9EDb7U-N0cWwTwihxK-1" value="airport" style="swimlane;fontStyle=1;childLayout=stackLayout;horizontal=1;startSize=60;horizontalStack=0;resizeParent=1;resizeParentMax=0;resizeLast=0;collapsible=1;marginBottom=0;fontSize=24;strokeColor=#B09500;align=left;verticalAlign=top;fillColor=#e3c800;fontColor=#000000;" parent="1" vertex="1">
          <mxGeometry x="-810" y="445" width="290" height="210" as="geometry">
            <mxRectangle x="550" y="930" width="110" height="60" as="alternateBounds" />
          </mxGeometry>
        </mxCell>
        <mxCell id="kM9EDb7U-N0cWwTwihxK-2" value="id" style="text;strokeColor=none;fillColor=none;align=left;verticalAlign=top;spacingLeft=4;spacingRight=4;overflow=hidden;rotatable=0;points=[[0,0.5],[1,0.5]];portConstraint=eastwest;fontSize=20;" parent="kM9EDb7U-N0cWwTwihxK-1" vertex="1">
          <mxGeometry y="60" width="290" height="50" as="geometry" />
        </mxCell>
        <mxCell id="kM9EDb7U-N0cWwTwihxK-3" value="name" style="text;strokeColor=none;fillColor=none;align=left;verticalAlign=top;spacingLeft=4;spacingRight=4;overflow=hidden;rotatable=0;points=[[0,0.5],[1,0.5]];portConstraint=eastwest;fontSize=20;" parent="kM9EDb7U-N0cWwTwihxK-1" vertex="1">
          <mxGeometry y="110" width="290" height="50" as="geometry" />
        </mxCell>
        <mxCell id="kM9EDb7U-N0cWwTwihxK-4" value="city_id" style="text;strokeColor=none;fillColor=none;align=left;verticalAlign=top;spacingLeft=4;spacingRight=4;overflow=hidden;rotatable=0;points=[[0,0.5],[1,0.5]];portConstraint=eastwest;fontSize=20;" parent="kM9EDb7U-N0cWwTwihxK-1" vertex="1">
          <mxGeometry y="160" width="290" height="50" as="geometry" />
        </mxCell>
        <mxCell id="oDikXgAVGrcmsy6VHiM1-5" style="edgeStyle=orthogonalEdgeStyle;rounded=0;orthogonalLoop=1;jettySize=auto;html=1;exitX=0;exitY=0.5;exitDx=0;exitDy=0;entryX=0;entryY=0.5;entryDx=0;entryDy=0;fillColor=#dae8fc;strokeColor=#6c8ebf;" parent="1" source="cjGhIyGhjkN-l4axuEIg-173" target="kM9EDb7U-N0cWwTwihxK-4" edge="1">
          <mxGeometry relative="1" as="geometry" />
        </mxCell>
        <mxCell id="oDikXgAVGrcmsy6VHiM1-6" style="edgeStyle=orthogonalEdgeStyle;rounded=0;orthogonalLoop=1;jettySize=auto;html=1;exitX=0;exitY=0.5;exitDx=0;exitDy=0;entryX=0;entryY=0.5;entryDx=0;entryDy=0;" parent="1" source="cjGhIyGhjkN-l4axuEIg-211" target="cjGhIyGhjkN-l4axuEIg-175" edge="1">
          <mxGeometry relative="1" as="geometry" />
        </mxCell>
        <mxCell id="oDikXgAVGrcmsy6VHiM1-7" style="edgeStyle=orthogonalEdgeStyle;rounded=0;orthogonalLoop=1;jettySize=auto;html=1;exitX=1;exitY=0.5;exitDx=0;exitDy=0;fillColor=#e3c800;strokeColor=#B09500;" parent="1" source="kM9EDb7U-N0cWwTwihxK-2" target="cjGhIyGhjkN-l4axuEIg-179" edge="1">
          <mxGeometry relative="1" as="geometry" />
        </mxCell>
        <mxCell id="oDikXgAVGrcmsy6VHiM1-8" style="edgeStyle=orthogonalEdgeStyle;rounded=0;orthogonalLoop=1;jettySize=auto;html=1;exitX=1;exitY=0.5;exitDx=0;exitDy=0;entryX=0;entryY=0.5;entryDx=0;entryDy=0;fillColor=#e3c800;strokeColor=#B09500;" parent="1" source="kM9EDb7U-N0cWwTwihxK-2" target="cjGhIyGhjkN-l4axuEIg-181" edge="1">
          <mxGeometry relative="1" as="geometry" />
        </mxCell>
        <mxCell id="oDikXgAVGrcmsy6VHiM1-10" style="edgeStyle=orthogonalEdgeStyle;rounded=0;orthogonalLoop=1;jettySize=auto;html=1;exitX=0;exitY=0.5;exitDx=0;exitDy=0;entryX=0;entryY=0.5;entryDx=0;entryDy=0;" parent="1" source="cjGhIyGhjkN-l4axuEIg-153" target="cjGhIyGhjkN-l4axuEIg-141" edge="1">
          <mxGeometry relative="1" as="geometry" />
        </mxCell>
        <mxCell id="oDikXgAVGrcmsy6VHiM1-11" style="edgeStyle=orthogonalEdgeStyle;rounded=0;orthogonalLoop=1;jettySize=auto;html=1;exitX=0;exitY=0.5;exitDx=0;exitDy=0;entryX=1;entryY=0.5;entryDx=0;entryDy=0;fillColor=#fff2cc;strokeColor=#d6b656;" parent="1" source="cjGhIyGhjkN-l4axuEIg-177" target="cjGhIyGhjkN-l4axuEIg-158" edge="1">
          <mxGeometry relative="1" as="geometry" />
        </mxCell>
        <mxCell id="oDikXgAVGrcmsy6VHiM1-12" style="edgeStyle=orthogonalEdgeStyle;rounded=0;orthogonalLoop=1;jettySize=auto;html=1;exitX=0;exitY=0.5;exitDx=0;exitDy=0;entryX=1;entryY=0.5;entryDx=0;entryDy=0;fillColor=#d5e8d4;strokeColor=#82b366;" parent="1" source="cjGhIyGhjkN-l4axuEIg-208" target="cjGhIyGhjkN-l4axuEIg-159" edge="1">
          <mxGeometry relative="1" as="geometry" />
        </mxCell>
        <mxCell id="oDikXgAVGrcmsy6VHiM1-14" style="edgeStyle=orthogonalEdgeStyle;rounded=0;orthogonalLoop=1;jettySize=auto;html=1;exitX=1;exitY=0.5;exitDx=0;exitDy=0;entryX=1;entryY=0.5;entryDx=0;entryDy=0;fillColor=#d5e8d4;strokeColor=#82b366;" parent="1" source="cjGhIyGhjkN-l4axuEIg-208" target="cjGhIyGhjkN-l4axuEIg-170" edge="1">
          <mxGeometry relative="1" as="geometry" />
        </mxCell>
        <mxCell id="oDikXgAVGrcmsy6VHiM1-15" style="edgeStyle=orthogonalEdgeStyle;rounded=0;orthogonalLoop=1;jettySize=auto;html=1;exitX=1;exitY=0.5;exitDx=0;exitDy=0;entryX=1;entryY=0.5;entryDx=0;entryDy=0;fillColor=#f8cecc;strokeColor=#b85450;" parent="1" source="cjGhIyGhjkN-l4axuEIg-140" target="cjGhIyGhjkN-l4axuEIg-169" edge="1">
          <mxGeometry relative="1" as="geometry" />
        </mxCell>
        <mxCell id="oDikXgAVGrcmsy6VHiM1-17" style="edgeStyle=orthogonalEdgeStyle;rounded=0;orthogonalLoop=1;jettySize=auto;html=1;exitX=1;exitY=0.5;exitDx=0;exitDy=0;entryX=0;entryY=0.5;entryDx=0;entryDy=0;fillColor=#fff2cc;strokeColor=#d6b656;" parent="1" source="cjGhIyGhjkN-l4axuEIg-177" target="cjGhIyGhjkN-l4axuEIg-163" edge="1">
          <mxGeometry relative="1" as="geometry" />
        </mxCell>
        <mxCell id="dwVEOOAWxV4uYfPuYmq5-8" style="edgeStyle=orthogonalEdgeStyle;rounded=0;orthogonalLoop=1;jettySize=auto;html=1;exitX=0;exitY=0.5;exitDx=0;exitDy=0;entryX=1;entryY=0.5;entryDx=0;entryDy=0;" parent="1" source="cjGhIyGhjkN-l4axuEIg-193" target="dwVEOOAWxV4uYfPuYmq5-7" edge="1">
          <mxGeometry relative="1" as="geometry" />
        </mxCell>
        <mxCell id="7VZu6mUywIs6etYzUb-g-1" style="edgeStyle=orthogonalEdgeStyle;rounded=0;orthogonalLoop=1;jettySize=auto;html=1;entryX=0;entryY=0.5;entryDx=0;entryDy=0;" edge="1" parent="1" source="cjGhIyGhjkN-l4axuEIg-214" target="dwVEOOAWxV4uYfPuYmq5-1">
          <mxGeometry relative="1" as="geometry" />
        </mxCell>
      </root>
    </mxGraphModel>
  </diagram>
  <diagram id="Z8AJWAWtvCBPNTUD-AOG" name="Page-2">
    <mxGraphModel dx="1730" dy="952" grid="1" gridSize="10" guides="1" tooltips="1" connect="1" arrows="1" fold="1" page="1" pageScale="1" pageWidth="850" pageHeight="1100" math="0" shadow="0">
      <root>
        <mxCell id="qRAmbSXgBiEEHmqQMlzB-0" />
        <mxCell id="qRAmbSXgBiEEHmqQMlzB-1" parent="qRAmbSXgBiEEHmqQMlzB-0" />
        <mxCell id="8rHtQCVe-TkT2OsnM8UU-0" value="model_has_permission" style="swimlane;fontStyle=1;childLayout=stackLayout;horizontal=1;startSize=60;horizontalStack=0;resizeParent=1;resizeParentMax=0;resizeLast=0;collapsible=1;marginBottom=0;fontSize=24;strokeColor=#000000;align=left;verticalAlign=top;" vertex="1" parent="qRAmbSXgBiEEHmqQMlzB-1">
          <mxGeometry x="960" y="100" width="290" height="210" as="geometry">
            <mxRectangle x="550" y="930" width="110" height="60" as="alternateBounds" />
          </mxGeometry>
        </mxCell>
        <mxCell id="8rHtQCVe-TkT2OsnM8UU-1" value="permission_id" style="text;strokeColor=none;fillColor=none;align=left;verticalAlign=top;spacingLeft=4;spacingRight=4;overflow=hidden;rotatable=0;points=[[0,0.5],[1,0.5]];portConstraint=eastwest;fontSize=20;" vertex="1" parent="8rHtQCVe-TkT2OsnM8UU-0">
          <mxGeometry y="60" width="290" height="50" as="geometry" />
        </mxCell>
        <mxCell id="8rHtQCVe-TkT2OsnM8UU-2" value="model_type" style="text;strokeColor=none;fillColor=none;align=left;verticalAlign=top;spacingLeft=4;spacingRight=4;overflow=hidden;rotatable=0;points=[[0,0.5],[1,0.5]];portConstraint=eastwest;fontSize=20;" vertex="1" parent="8rHtQCVe-TkT2OsnM8UU-0">
          <mxGeometry y="110" width="290" height="50" as="geometry" />
        </mxCell>
        <mxCell id="8rHtQCVe-TkT2OsnM8UU-3" value="model_id" style="text;strokeColor=none;fillColor=none;align=left;verticalAlign=top;spacingLeft=4;spacingRight=4;overflow=hidden;rotatable=0;points=[[0,0.5],[1,0.5]];portConstraint=eastwest;fontSize=20;" vertex="1" parent="8rHtQCVe-TkT2OsnM8UU-0">
          <mxGeometry y="160" width="290" height="50" as="geometry" />
        </mxCell>
        <mxCell id="8rHtQCVe-TkT2OsnM8UU-4" value="model_has_role" style="swimlane;fontStyle=1;childLayout=stackLayout;horizontal=1;startSize=60;horizontalStack=0;resizeParent=1;resizeParentMax=0;resizeLast=0;collapsible=1;marginBottom=0;fontSize=24;strokeColor=#000000;align=left;verticalAlign=top;" vertex="1" parent="qRAmbSXgBiEEHmqQMlzB-1">
          <mxGeometry x="560" y="390" width="290" height="210" as="geometry">
            <mxRectangle x="550" y="930" width="110" height="60" as="alternateBounds" />
          </mxGeometry>
        </mxCell>
        <mxCell id="8rHtQCVe-TkT2OsnM8UU-5" value="role_id" style="text;strokeColor=none;fillColor=none;align=left;verticalAlign=top;spacingLeft=4;spacingRight=4;overflow=hidden;rotatable=0;points=[[0,0.5],[1,0.5]];portConstraint=eastwest;fontSize=20;" vertex="1" parent="8rHtQCVe-TkT2OsnM8UU-4">
          <mxGeometry y="60" width="290" height="50" as="geometry" />
        </mxCell>
        <mxCell id="8rHtQCVe-TkT2OsnM8UU-6" value="model_type" style="text;strokeColor=none;fillColor=none;align=left;verticalAlign=top;spacingLeft=4;spacingRight=4;overflow=hidden;rotatable=0;points=[[0,0.5],[1,0.5]];portConstraint=eastwest;fontSize=20;" vertex="1" parent="8rHtQCVe-TkT2OsnM8UU-4">
          <mxGeometry y="110" width="290" height="50" as="geometry" />
        </mxCell>
        <mxCell id="8rHtQCVe-TkT2OsnM8UU-7" value="model_id" style="text;strokeColor=none;fillColor=none;align=left;verticalAlign=top;spacingLeft=4;spacingRight=4;overflow=hidden;rotatable=0;points=[[0,0.5],[1,0.5]];portConstraint=eastwest;fontSize=20;" vertex="1" parent="8rHtQCVe-TkT2OsnM8UU-4">
          <mxGeometry y="160" width="290" height="50" as="geometry" />
        </mxCell>
        <mxCell id="8rHtQCVe-TkT2OsnM8UU-8" value="roles" style="swimlane;fontStyle=1;childLayout=stackLayout;horizontal=1;startSize=60;horizontalStack=0;resizeParent=1;resizeParentMax=0;resizeLast=0;collapsible=1;marginBottom=0;fontSize=24;strokeColor=#000000;align=left;verticalAlign=top;" vertex="1" parent="qRAmbSXgBiEEHmqQMlzB-1">
          <mxGeometry x="120" y="390" width="290" height="210" as="geometry">
            <mxRectangle x="550" y="930" width="110" height="60" as="alternateBounds" />
          </mxGeometry>
        </mxCell>
        <mxCell id="8rHtQCVe-TkT2OsnM8UU-9" value="id" style="text;strokeColor=none;fillColor=none;align=left;verticalAlign=top;spacingLeft=4;spacingRight=4;overflow=hidden;rotatable=0;points=[[0,0.5],[1,0.5]];portConstraint=eastwest;fontSize=20;" vertex="1" parent="8rHtQCVe-TkT2OsnM8UU-8">
          <mxGeometry y="60" width="290" height="50" as="geometry" />
        </mxCell>
        <mxCell id="8rHtQCVe-TkT2OsnM8UU-10" value="name" style="text;strokeColor=none;fillColor=none;align=left;verticalAlign=top;spacingLeft=4;spacingRight=4;overflow=hidden;rotatable=0;points=[[0,0.5],[1,0.5]];portConstraint=eastwest;fontSize=20;" vertex="1" parent="8rHtQCVe-TkT2OsnM8UU-8">
          <mxGeometry y="110" width="290" height="50" as="geometry" />
        </mxCell>
        <mxCell id="8rHtQCVe-TkT2OsnM8UU-11" value="guard_name" style="text;strokeColor=none;fillColor=none;align=left;verticalAlign=top;spacingLeft=4;spacingRight=4;overflow=hidden;rotatable=0;points=[[0,0.5],[1,0.5]];portConstraint=eastwest;fontSize=20;" vertex="1" parent="8rHtQCVe-TkT2OsnM8UU-8">
          <mxGeometry y="160" width="290" height="50" as="geometry" />
        </mxCell>
        <mxCell id="8rHtQCVe-TkT2OsnM8UU-12" value="role_has_permissions" style="swimlane;fontStyle=1;childLayout=stackLayout;horizontal=1;startSize=60;horizontalStack=0;resizeParent=1;resizeParentMax=0;resizeLast=0;collapsible=1;marginBottom=0;fontSize=24;strokeColor=#000000;align=left;verticalAlign=top;" vertex="1" parent="qRAmbSXgBiEEHmqQMlzB-1">
          <mxGeometry x="80" y="120" width="290" height="160" as="geometry">
            <mxRectangle x="550" y="930" width="110" height="60" as="alternateBounds" />
          </mxGeometry>
        </mxCell>
        <mxCell id="8rHtQCVe-TkT2OsnM8UU-13" value="permission_id" style="text;strokeColor=none;fillColor=none;align=left;verticalAlign=top;spacingLeft=4;spacingRight=4;overflow=hidden;rotatable=0;points=[[0,0.5],[1,0.5]];portConstraint=eastwest;fontSize=20;" vertex="1" parent="8rHtQCVe-TkT2OsnM8UU-12">
          <mxGeometry y="60" width="290" height="50" as="geometry" />
        </mxCell>
        <mxCell id="8rHtQCVe-TkT2OsnM8UU-14" value="role_id" style="text;strokeColor=none;fillColor=none;align=left;verticalAlign=top;spacingLeft=4;spacingRight=4;overflow=hidden;rotatable=0;points=[[0,0.5],[1,0.5]];portConstraint=eastwest;fontSize=20;" vertex="1" parent="8rHtQCVe-TkT2OsnM8UU-12">
          <mxGeometry y="110" width="290" height="50" as="geometry" />
        </mxCell>
        <mxCell id="8rHtQCVe-TkT2OsnM8UU-15" style="edgeStyle=orthogonalEdgeStyle;rounded=0;orthogonalLoop=1;jettySize=auto;html=1;exitX=1;exitY=0.5;exitDx=0;exitDy=0;entryX=0;entryY=0.5;entryDx=0;entryDy=0;fontSize=20;" edge="1" parent="qRAmbSXgBiEEHmqQMlzB-1" source="8rHtQCVe-TkT2OsnM8UU-17" target="8rHtQCVe-TkT2OsnM8UU-1">
          <mxGeometry relative="1" as="geometry" />
        </mxCell>
        <mxCell id="8rHtQCVe-TkT2OsnM8UU-16" value="permissions" style="swimlane;fontStyle=1;childLayout=stackLayout;horizontal=1;startSize=60;horizontalStack=0;resizeParent=1;resizeParentMax=0;resizeLast=0;collapsible=1;marginBottom=0;fontSize=24;strokeColor=#000000;align=left;verticalAlign=top;" vertex="1" parent="qRAmbSXgBiEEHmqQMlzB-1">
          <mxGeometry x="470" y="80" width="290" height="210" as="geometry">
            <mxRectangle x="550" y="930" width="110" height="60" as="alternateBounds" />
          </mxGeometry>
        </mxCell>
        <mxCell id="8rHtQCVe-TkT2OsnM8UU-17" value="id" style="text;strokeColor=none;fillColor=none;align=left;verticalAlign=top;spacingLeft=4;spacingRight=4;overflow=hidden;rotatable=0;points=[[0,0.5],[1,0.5]];portConstraint=eastwest;fontSize=20;" vertex="1" parent="8rHtQCVe-TkT2OsnM8UU-16">
          <mxGeometry y="60" width="290" height="50" as="geometry" />
        </mxCell>
        <mxCell id="8rHtQCVe-TkT2OsnM8UU-18" value="name" style="text;strokeColor=none;fillColor=none;align=left;verticalAlign=top;spacingLeft=4;spacingRight=4;overflow=hidden;rotatable=0;points=[[0,0.5],[1,0.5]];portConstraint=eastwest;fontSize=20;" vertex="1" parent="8rHtQCVe-TkT2OsnM8UU-16">
          <mxGeometry y="110" width="290" height="50" as="geometry" />
        </mxCell>
        <mxCell id="8rHtQCVe-TkT2OsnM8UU-19" value="guard_name" style="text;strokeColor=none;fillColor=none;align=left;verticalAlign=top;spacingLeft=4;spacingRight=4;overflow=hidden;rotatable=0;points=[[0,0.5],[1,0.5]];portConstraint=eastwest;fontSize=20;" vertex="1" parent="8rHtQCVe-TkT2OsnM8UU-16">
          <mxGeometry y="160" width="290" height="50" as="geometry" />
        </mxCell>
        <mxCell id="8rHtQCVe-TkT2OsnM8UU-20" style="edgeStyle=orthogonalEdgeStyle;rounded=0;orthogonalLoop=1;jettySize=auto;html=1;exitX=0;exitY=0.5;exitDx=0;exitDy=0;fontSize=20;" edge="1" parent="qRAmbSXgBiEEHmqQMlzB-1" source="8rHtQCVe-TkT2OsnM8UU-17" target="8rHtQCVe-TkT2OsnM8UU-13">
          <mxGeometry relative="1" as="geometry" />
        </mxCell>
        <mxCell id="8rHtQCVe-TkT2OsnM8UU-21" style="edgeStyle=orthogonalEdgeStyle;rounded=0;orthogonalLoop=1;jettySize=auto;html=1;exitX=1;exitY=0.5;exitDx=0;exitDy=0;fontSize=20;" edge="1" parent="qRAmbSXgBiEEHmqQMlzB-1" source="8rHtQCVe-TkT2OsnM8UU-9" target="8rHtQCVe-TkT2OsnM8UU-5">
          <mxGeometry relative="1" as="geometry" />
        </mxCell>
        <mxCell id="8rHtQCVe-TkT2OsnM8UU-22" style="edgeStyle=orthogonalEdgeStyle;rounded=0;orthogonalLoop=1;jettySize=auto;html=1;exitX=0;exitY=0.5;exitDx=0;exitDy=0;fontSize=20;" edge="1" parent="qRAmbSXgBiEEHmqQMlzB-1" source="8rHtQCVe-TkT2OsnM8UU-9" target="8rHtQCVe-TkT2OsnM8UU-14">
          <mxGeometry relative="1" as="geometry" />
        </mxCell>
      </root>
    </mxGraphModel>
  </diagram>
</mxfile>
